<?xml version="1.0" standalone="no"?>
<!DOCTYPE svg PUBLIC "-//W3C//DTD SVG 20010904//EN"
 "http://www.w3.org/TR/2001/REC-SVG-20010904/DTD/svg10.dtd">
<svg version="1.0" xmlns="http://www.w3.org/2000/svg"
 width="192.000000pt" height="192.000000pt" viewBox="0 0 192.000000 192.000000"
 preserveAspectRatio="xMidYMid meet">

<g transform="translate(0.000000,192.000000) scale(0.100000,-0.100000)"
fill="#000000" stroke="none">
<path d="M828 1467 c-70 -166 -139 -332 -154 -370 -21 -51 -44 -84 -99 -140
-39 -40 -80 -79 -92 -88 -12 -8 -54 -46 -94 -83 -63 -60 -73 -67 -79 -50 -7
19 -38 343 -43 459 -2 33 -4 -96 -5 -287 -1 -192 -3 -351 -3 -355 -2 -11 683
-402 704 -403 10 0 20 8 24 18 3 9 65 115 136 234 l129 217 100 -50 c55 -27
98 -54 96 -58 -3 -10 -247 -198 -353 -274 -38 -27 -65 -48 -58 -46 6 2 152 85
322 184 l311 180 -2 409 -3 410 -340 197 c-187 109 -347 198 -355 198 -10 1
-55 -94 -142 -302z m-378 -659 c-6 -7 -48 -59 -95 -116 -70 -85 -85 -98 -85
-77 0 14 4 25 9 25 11 0 79 71 141 149 14 17 28 31 33 31 4 0 3 -6 -3 -12z
m827 -140 c-3 -8 -6 -5 -6 6 -1 11 2 17 5 13 3 -3 4 -12 1 -19z"/>
<path d="M810 1690 c-8 -5 -10 -10 -5 -10 6 0 17 5 25 10 8 5 11 10 5 10 -5 0
-17 -5 -25 -10z"/>
</g>
</svg>
