<?xml version="1.0" standalone="no"?>
<!DOCTYPE svg PUBLIC "-//W3C//DTD SVG 20010904//EN"
 "http://www.w3.org/TR/2001/REC-SVG-20010904/DTD/svg10.dtd">
<svg version="1.0" xmlns="http://www.w3.org/2000/svg"
 width="192.000000pt" height="192.000000pt" viewBox="0 0 192.000000 192.000000"
 preserveAspectRatio="xMidYMid meet">

<g transform="translate(0.000000,192.000000) scale(0.100000,-0.100000)"
fill="#000000" stroke="none">
<path d="M960 1838 c0 -2 -78 -185 -174 -408 l-174 -405 -168 -153 c-154 -139
-169 -150 -175 -130 -4 13 -19 142 -34 288 -14 146 -30 279 -34 295 -5 18 -9
-142 -10 -391 l-1 -421 27 -12 c27 -12 261 -147 580 -333 83 -48 154 -88 158
-88 7 0 251 138 580 328 l190 110 2 443 3 444 -83 46 c-45 25 -216 123 -379
217 -274 158 -308 177 -308 170z"/>
</g>
</svg>
