<?xml version="1.0" standalone="no"?>
<!DOCTYPE svg PUBLIC "-//W3C//DTD SVG 20010904//EN"
 "http://www.w3.org/TR/2001/REC-SVG-20010904/DTD/svg10.dtd">
<svg version="1.0" xmlns="http://www.w3.org/2000/svg"
 width="85.000000pt" height="39.000000pt" viewBox="0 0 85.000000 39.000000"
 preserveAspectRatio="xMidYMid meet">

<g transform="translate(0.000000,39.000000) scale(0.100000,-0.100000)"
fill="#000000" stroke="none">
<path d="M135 301 c-34 -82 -95 -164 -111 -149 -3 3 -9 28 -14 55 -7 43 -8 41
-7 -32 l2 -79 83 -48 82 -47 83 47 82 48 3 97 3 96 -38 24 c-21 13 -59 35 -84
50 l-47 26 -37 -88z"/>
<path d="M370 236 c0 -31 5 -56 10 -56 6 0 10 11 10 24 0 13 7 27 16 30 24 9
14 50 -13 54 -22 3 -23 0 -23 -52z m27 12 c-3 -7 -5 -2 -5 12 0 14 2 19 5 13
2 -7 2 -19 0 -25z"/>
<path d="M447 283 c-14 -13 -7 -93 8 -99 34 -13 57 42 39 90 -6 16 -35 22 -47
9z m31 -54 c-2 -19 -7 -33 -13 -32 -12 3 -19 49 -10 71 10 26 27 -2 23 -39z"/>
<path d="M522 238 c-2 -54 0 -58 20 -58 20 0 20 1 5 13 -9 7 -18 31 -20 57 -3
42 -4 41 -5 -12z"/>
<path d="M582 238 c-10 -54 -8 -73 7 -49 5 7 14 10 20 7 21 -14 11 -25 -26
-28 -35 -3 -38 -6 -38 -33 l0 -30 75 0 75 0 0 30 c0 26 -4 30 -31 33 -30 3
-32 6 -43 63 -7 32 -16 59 -20 59 -5 0 -13 -24 -19 -52z m28 -14 c0 -8 -5 -12
-10 -9 -6 4 -8 11 -5 16 9 14 15 11 15 -7z m20 -89 c0 -14 -4 -25 -10 -25 -5
0 -10 11 -10 25 0 14 5 25 10 25 6 0 10 -11 10 -25z"/>
<path d="M651 233 c1 -41 3 -51 8 -33 l7 25 8 -22 c4 -13 12 -23 17 -23 6 0 7
5 3 12 -4 6 -8 30 -8 52 -1 30 -5 42 -18 44 -16 3 -18 -4 -17 -55z m29 28 c0
-6 -4 -13 -10 -16 -5 -3 -10 1 -10 9 0 9 5 16 10 16 6 0 10 -4 10 -9z"/>
<path d="M711 285 c0 -5 6 -32 14 -60 10 -38 14 -43 14 -22 1 16 6 37 12 48 6
11 8 25 5 32 -2 7 -8 1 -12 -12 l-7 -23 -13 23 c-7 13 -13 20 -13 14z"/>
<path d="M776 274 c-4 -9 0 -24 9 -34 18 -20 20 -46 3 -53 -8 -3 -6 -6 5 -6
26 -1 31 24 10 59 -15 27 -16 32 -3 40 13 8 13 10 -1 10 -9 0 -20 -7 -23 -16z"/>
<path d="M370 135 c0 -33 2 -35 35 -35 24 0 35 5 35 14 0 10 14 16 43 18 29 2
42 8 42 18 0 12 -17 16 -77 18 l-78 3 0 -36z m90 15 c0 -5 -4 -10 -10 -10 -5
0 -10 5 -10 10 0 6 5 10 10 10 6 0 10 -4 10 -10z"/>
<path d="M720 135 l0 -35 68 2 c37 0 52 3 35 5 -29 4 -33 8 -33 34 0 27 -3 29
-35 29 -33 0 -35 -2 -35 -35z"/>
</g>
</svg>
